<?xml version="1.0"?>
<svg width="128" height="128" xmlns="http://www.w3.org/2000/svg" xmlns:svg="http://www.w3.org/2000/svg">
 <metadata>image/svg+xmlOpenclipartDucky icon2009-03-18T14:03:06https://openclipart.org/detail/22535/ducky-icon-by-pitrpitrbabybathcontourduckiconrubbertoyyellow</metadata>
 <g>
  <title>Layer 1</title>
  <g id="layer2">
   <path stroke-linejoin="round" stroke="#000000" stroke-width="4" fill="#ff56ff" d="m104.784645,33.629356c-4.889999,0 -8.792,3.967003 -8.792,8.858002l0,10.401997c2.067001,1.021 4.412003,1.610001 6.842003,1.610001c8.869995,0 16.040001,-7.572998 16.040001,-16.910999c0,-1.362 -0.18,-2.689999 -0.470001,-3.959l-13.620003,0z" id="path3297"/>
   <path stroke-linejoin="round" stroke="#000000" stroke-width="6" fill="#ff56ff" d="m78.074646,16.852356c-13.042999,0 -23.622009,10.888 -23.622009,24.292999c0,7.731003 3.51001,14.610001 8.993011,19.057999c-3.244003,-0.337997 -6.563004,-0.536995 -9.932007,-0.536995c-4.862991,0 -9.604996,0.450996 -14.22699,1.140999c-3.88501,-8.127003 -12.934006,-15.106003 -20.410004,-17.240002c-10.119003,11.160999 -12.098007,22.856998 -12.001999,33.283001c0.111496,12.123001 3.619003,21.560997 8.589005,28.854996c11.515991,6.470001 25.35199,10.260002 40.196991,10.260002c12.481003,0 24.223999,-2.68 34.493011,-7.379997c6.566994,-7.886002 10.540993,-17.980003 10.540993,-28.987999c0,-7.858002 -2.020004,-15.230003 -5.575005,-21.675003c4.065002,-4.362999 6.575005,-10.263 6.575005,-16.777c0,-13.404999 -10.577003,-24.292999 -23.620003,-24.292999z" id="path2278"/>
   <path stroke-linejoin="round" stroke="#000000" stroke-width="2" fill="#ff56ff" d="m88.013077,34.482075a4.002383,3.831568 0 1 1 -8.005417,0a4.002383,3.831568 0 1 1 8.005417,0z" id="path3307"/>
  </g>
 </g>
</svg>